<svg xmlns="http://www.w3.org/2000/svg" viewBox="0 0 64 64" fill="none">
  <rect x="5" y="5" width="54" height="54" rx="18" fill="url(#shell)"/>
  <path d="M25.5 48.5C22.5 52.4 18.3 52.7 15.8 49.8" stroke="rgba(255,255,255,0.28)" stroke-width="4.8" stroke-linecap="round"/>
  <path d="M24.5 15.2V48.1" stroke="url(#stroke)" stroke-width="5.4" stroke-linecap="round"/>
  <path d="M25.8 20.4C38.8 20.2 47.4 27.2 45.2 36.3C43.1 45.1 34.4 49.9 25.3 45.7" stroke="url(#stroke)" stroke-width="5.4" stroke-linecap="round" stroke-linejoin="round"/>
  <path d="M18.3 39.1C23.7 36.2 29.1 36.7 34.3 39.3C38 41.1 41.7 40.6 45.4 37.7" stroke="url(#water)" stroke-width="2.3" stroke-linecap="round"/>
  <path d="M33.8 30.8L39 34.6L33.8 38.4" stroke="rgba(255,246,218,0.76)" stroke-width="2" stroke-linecap="round" stroke-linejoin="round"/>
  <circle cx="43.2" cy="20.5" r="7.2" fill="#F2A23A" opacity="0.18"/>
  <circle cx="43.2" cy="20.5" r="3.4" fill="#F2A23A"/>
  <defs>
    <linearGradient id="shell" x1="9" y1="7" x2="57" y2="57" gradientUnits="userSpaceOnUse">
      <stop stop-color="#163B5B"/>
      <stop offset="0.52" stop-color="#102A43"/>
      <stop offset="1" stop-color="#071827"/>
    </linearGradient>
    <linearGradient id="stroke" x1="20" y1="14" x2="48" y2="50" gradientUnits="userSpaceOnUse">
      <stop stop-color="#F7FBFF"/>
      <stop offset="0.48" stop-color="#C8D6E5"/>
      <stop offset="1" stop-color="#7FA7C7"/>
    </linearGradient>
    <linearGradient id="water" x1="18" y1="37" x2="46" y2="41" gradientUnits="userSpaceOnUse">
      <stop stop-color="#A7D6E8"/>
      <stop offset="0.58" stop-color="#EAF7FF"/>
      <stop offset="1" stop-color="#F2A23A"/>
    </linearGradient>
  </defs>
</svg>
